<svg id="Layer_1" data-name="Layer 1" xmlns="http://www.w3.org/2000/svg" viewBox="0 0 284.84 228.06"><defs><style>.cls-1{fill:#fff;}</style></defs><title>Artboard 7</title><path class="cls-1" d="M22.71,150.68v23.13q0,21.83,9.59,35.14t28.55,19.12H224q18.74-5.82,28.44-18.94t9.69-35V150.68q0-28.22,22.71-28.22V105.61q-22.7,0-22.71-27.77V53.44Q262,32,252.49,18.88T224,0H60.85Q41.67,5.92,32.3,19T22.71,53.32V77.49q0,28.11-22.71,28.12v16.85Q22.71,122.45,22.71,150.68ZM33.87,87C35.62,53.38,60.91,37,71.7,30.05l1.24-.8c5.91-3.85,10.51-1.85,13.88-.39,2.24,1,4.18,1.81,5.58.16.36-.62.74-1.25.41-1.93-.66-1.34-3.17-1.8-19.49-4.8a1,1,0,0,1-.86-.81,1,1,0,0,1,.49-1c32.82-19.6,47-5.66,53.83,1,2.23,2.19,3.55,3.5,5,3.18.6-.18,1.3-.48,1.47-1.19.25-1.08-.87-2.25-4.84-5.69a1,1,0,0,1-.24-1.16,1.15,1.15,0,0,1,1-.7l2.11,0c60.74,0,71.64,58.53,73.07,68.82a2.75,2.75,0,0,1-1.08,2.38c-8,7.19-14.41,15.34-20.7,22.2l-.38.41L177.46,107l-1.52,8.42-11.36-14.7-8.36,25.9-3.3-3.59-6.93,8.8h0v0c-10.38-1.71-18.29-9.72-18.37-9.8a1.48,1.48,0,0,0-2-.08,1.36,1.36,0,0,0-.08,1.9c3.29,4.36,13.55,14.87,20.53,15.75,22.16,2.81,52-40,60.08-47.94a34.43,34.43,0,0,1,9.59-6c12.4-5.62,17.86-2.26,17.86-2.26l.2.17c12.45,8.83,19.18,22.57,19.44,39.72.25,15.79-5,33.29-14.9,49.28C218.65,204.42,180.61,229,140,212.1c-64.59-26.91-45.22-96.74-37.92-123,.89-3.23,1.6-5.77,2-7.64a2,2,0,0,0-1.38-2.3,2.18,2.18,0,0,0-2.61,1l-.06.14c-20.13,50.23-14.3,71-11.5,81,1.33,4.73,1.29,5.36-.31,6.11-4.59,2.15-11-2.35-16.15-6-4.49-3.15-8-5.64-10.72-4.34a2.79,2.79,0,0,0-1.58,2c-.72,3.8,5.8,11.41,15.8,21.67l.77.79c3,3.13,6.82,3.21,10.48,3.29,3.12.07,6.07.13,8.76,1.94,4.64,3.12,10.38,11.93,12.56,16.82a1.25,1.25,0,0,1-1.65,1.61c-6.7-2.42-21.75-9.33-35.5-16.11-13.57-9.26-23-19.13-28.8-30.19a67.79,67.79,0,0,1-7.59-28.68c0-.28,0-.65-.07-1.1-.51-6.91.36-8.66,1.18-8.92s2.45,1.13,4.81,4.12L41,125c1.76,2.11,3.45,4.33,5.08,6.49,1.42,1.87,2.88,3.79,4.39,5.65l.63.78C53.85,141.26,56.9,145,61,147c6.25,3,9.86-2.52,11.4-4.87a24,24,0,0,0,2.14-22.43A20.58,20.58,0,0,0,60.63,108c8.48-2.18,12.1-7.57,13.59-11.1,3.39-8.08,1-18.31-5.77-24.35A5.42,5.42,0,0,0,64.26,71c-5.54.43-12.14,8.67-18,15.93-4.2,5.23-9,11.16-10.9,10.49C34.64,97.21,33.43,95.5,33.87,87Z"/><path class="cls-1" d="M139.35,101.88c8.2,0,14.88-6.28,14.88-14s-6.67-14-14.88-14-14.89,6.28-14.89,14S131.15,101.88,139.35,101.88ZM143.06,79a6.23,6.23,0,1,1-6.62,6.22A6.44,6.44,0,0,1,143.06,79Z"/></svg>